<svg width="139" height="135" viewBox="0 0 139 135" fill="none" xmlns="http://www.w3.org/2000/svg">
<path d="M43.08 51.64H47.88L62.24 82H57.36L55.4 77.64H46.32C44.96 77.64 43.7467 77.7333 42.68 77.92C41.64 78.1067 40.7467 78.3467 40 78.64C39.2533 78.9333 38.6533 79.2533 38.2 79.6C37.7467 79.9467 37.44 80.28 37.28 80.6L36.52 82H31.8L44.72 55.32L43.08 51.64ZM53.44 73.24L46.92 60.64L40.32 74.92C40.8533 74.4667 41.7333 74.08 42.96 73.76C44.1867 73.4133 45.84 73.24 47.92 73.24H53.44ZM83.1019 73.68L72.9819 61.48V82H68.7019V56.36L65.2219 52.16H70.8619L83.0619 66.8L95.4219 52.16H101.062L97.5819 56.36V82H93.3019V61.48L83.1019 73.68Z" fill="#121011"/>
<path d="M10 76.01L3 72.84L3 71.85L10 68.67V69.72L3.56 72.55L3.56 72.15L10 74.98V76.01ZM8.25 74.66L7.45 74.39V70.45L8.25 70.16V74.66ZM10 67.6258H3V66.8058L8.29 63.6658V64.1058L3 61.0058V60.1858L10 60.1758V61.1358L4.51 61.1458V60.9158L9.15 63.6758V64.1358L4.51 66.9158V66.6658H10V67.6258Z" fill="#121011"/>
<path d="M129 58.99L136 62.16V63.15L129 66.33V65.28L135.44 62.45V62.85L129 60.02V58.99ZM130.75 60.34L131.55 60.61V64.55L130.75 64.84V60.34ZM129 67.3742H136V68.1942L130.71 71.3342V70.8942L136 73.9942V74.8142L129 74.8242V73.8642L134.49 73.8542V74.0842L129.85 71.3242V70.8642L134.49 68.0842V68.3342H129V67.3742Z" fill="#121011"/>
<path d="M19.1453 111.929C18.5899 111.353 18.1698 110.73 17.885 110.06C17.6143 109.391 17.4781 108.709 17.4766 108.016C17.4892 107.323 17.6322 106.651 17.9058 105.998C18.1793 105.345 18.5968 104.748 19.1583 104.207C19.7197 103.665 20.3316 103.27 20.9938 103.02C21.6561 102.77 22.3335 102.659 23.0261 102.686C23.7259 102.705 24.4019 102.866 25.0542 103.168C25.7205 103.47 26.3314 103.909 26.8867 104.485C27.4489 105.068 27.8653 105.701 28.1358 106.385C28.4204 107.069 28.5349 107.772 28.4794 108.492L27.1224 108.446C27.147 107.867 27.0578 107.327 26.8547 106.829C26.6588 106.323 26.363 105.865 25.9674 105.455C25.5578 105.03 25.1041 104.704 24.6061 104.475C24.115 104.254 23.6115 104.135 23.0955 104.119C22.5796 104.103 22.0687 104.192 21.5631 104.388C21.0715 104.584 20.617 104.884 20.1995 105.286C19.782 105.689 19.4627 106.136 19.2416 106.627C19.0346 107.118 18.93 107.622 18.9277 108.138C18.9254 108.654 19.0258 109.162 19.2289 109.661C19.4389 110.166 19.7487 110.632 20.1583 111.057C20.554 111.467 20.9973 111.783 21.4883 112.004C21.9866 112.218 22.5293 112.32 23.1165 112.309L23.113 113.667C22.3911 113.696 21.6899 113.56 21.0094 113.257C20.3358 112.962 19.7144 112.519 19.1453 111.929Z" fill="#121011"/>
<path d="M38.4961 112.907L39.7124 113.785L33.5668 122.299L32.3506 121.421L38.4961 112.907ZM27.4613 117.892L26.2451 117.014L32.3906 108.5L33.6069 109.378L27.4613 117.892ZM35.1992 117.705L30.0788 114.009L30.8427 112.951L35.963 116.647L35.1992 117.705Z" fill="#121011"/>
<path d="M44.6132 126.672C43.8799 126.352 43.2511 125.931 42.7266 125.407C42.2113 124.888 41.8204 124.308 41.554 123.668C41.2917 123.019 41.1621 122.341 41.1654 121.633C41.1686 120.925 41.3242 120.219 41.6321 119.513C41.9399 118.807 42.3521 118.212 42.8687 117.728C43.3852 117.245 43.9686 116.883 44.6188 116.643C45.273 116.393 45.9657 116.281 46.697 116.305C47.4282 116.33 48.165 116.504 48.9075 116.828C49.6408 117.148 50.2605 117.565 50.7666 118.081C51.2859 118.591 51.6768 119.171 51.9392 119.82C52.2147 120.463 52.3463 121.137 52.3338 121.841C52.3306 122.549 52.173 123.26 51.8611 123.975C51.5493 124.69 51.1351 125.289 50.6185 125.773C50.1112 126.261 49.5258 126.628 48.8624 126.873C48.2122 127.113 47.5215 127.221 46.7902 127.196C46.0721 127.167 45.3465 126.992 44.6132 126.672ZM45.147 125.448C45.6786 125.68 46.209 125.803 46.7381 125.815C47.2763 125.832 47.7824 125.747 48.2563 125.561C48.7434 125.37 49.1766 125.09 49.5558 124.72C49.9442 124.355 50.2544 123.907 50.4863 123.375C50.7182 122.844 50.8358 122.311 50.8393 121.778C50.8519 121.249 50.7606 120.746 50.5654 120.268C50.3834 119.785 50.1032 119.351 49.7249 118.968C49.3557 118.589 48.9053 118.283 48.3737 118.052C47.8329 117.816 47.2934 117.689 46.7551 117.673C46.226 117.66 45.7179 117.749 45.2309 117.941C44.7478 118.123 44.3121 118.396 43.9236 118.761C43.5444 119.131 43.2388 119.581 43.0069 120.113C42.775 120.644 42.6528 121.175 42.6402 121.704C42.6367 122.237 42.7306 122.747 42.9218 123.234C43.117 123.712 43.3992 124.14 43.7683 124.52C44.1467 124.903 44.6062 125.212 45.147 125.448Z" fill="#121011"/>
<path d="M60.3124 130.182C59.5278 130.027 58.8273 129.755 58.211 129.367C57.6065 128.972 57.1057 128.49 56.7089 127.922C56.3237 127.346 56.0572 126.712 55.9092 126.02C55.7612 125.328 55.7632 124.599 55.9152 123.834C56.0672 123.069 56.3439 122.395 56.7452 121.812C57.1464 121.229 57.6391 120.751 58.223 120.377C58.8089 119.994 59.4558 119.74 60.1636 119.616C60.8832 119.484 61.6353 119.495 62.42 119.651C63.2144 119.809 63.9179 120.092 64.5303 120.499C65.1544 120.898 65.6493 121.409 66.0149 122.032L64.8744 122.769C64.5639 122.279 64.183 121.888 63.7315 121.594C63.282 121.291 62.7777 121.083 62.2187 120.972C61.64 120.857 61.081 120.848 60.5418 120.945C60.0125 121.044 59.5312 121.234 59.0982 121.515C58.6651 121.796 58.2969 122.161 57.9935 122.61C57.7018 123.052 57.4995 123.557 57.3865 124.126C57.2735 124.695 57.2663 125.244 57.3651 125.774C57.4755 126.295 57.6772 126.768 57.9699 127.194C58.2627 127.619 58.6348 127.978 59.0862 128.272C59.5475 128.567 60.0675 128.773 60.6461 128.888C61.2052 128.999 61.7495 129.005 62.2788 128.906C62.8102 128.798 63.3139 128.571 63.79 128.228L64.5622 129.344C63.9862 129.781 63.3325 130.069 62.6012 130.209C61.8796 130.351 61.1167 130.342 60.3124 130.182Z" fill="#121011"/>
<path d="M73.5335 130.509C72.7337 130.494 71.9914 130.344 71.3067 130.061C70.6321 129.778 70.0494 129.392 69.5588 128.902C69.0683 128.403 68.6894 127.825 68.422 127.17C68.1546 126.515 68.0283 125.802 68.0432 125.032C68.0581 124.262 68.2117 123.555 68.5042 122.911C68.7967 122.266 69.1975 121.709 69.7067 121.239C70.2161 120.758 70.8133 120.39 71.4984 120.133C72.1835 119.876 72.9309 119.756 73.7408 119.771C74.5406 119.787 75.2729 119.936 75.9376 120.219C76.6124 120.492 77.1951 120.878 77.6855 121.378C78.1862 121.867 78.5652 122.44 78.8226 123.095C79.09 123.75 79.2162 124.468 79.2011 125.248C79.1861 126.028 79.0323 126.74 78.7398 127.384C78.4573 128.029 78.0564 128.591 77.537 129.071C77.0278 129.542 76.4307 129.905 75.7456 130.162C75.0707 130.409 74.3334 130.525 73.5335 130.509ZM73.5593 129.175C74.1392 129.186 74.676 129.096 75.1698 128.906C75.6735 128.715 76.1089 128.444 76.4757 128.091C76.8528 127.728 77.1461 127.303 77.3555 126.817C77.5749 126.331 77.6902 125.799 77.7014 125.219C77.7126 124.639 77.6179 124.102 77.4174 123.608C77.2269 123.114 76.9502 122.684 76.5872 122.317C76.2344 121.94 75.81 121.647 75.3139 121.437C74.8279 121.228 74.2949 121.117 73.715 121.106C73.1251 121.095 72.5783 121.184 72.0745 121.374C71.5808 121.565 71.1453 121.842 70.7683 122.204C70.3914 122.557 70.0932 122.976 69.8738 123.462C69.6644 123.948 69.5541 124.481 69.5429 125.061C69.5317 125.641 69.6214 126.178 69.8119 126.672C70.0124 127.166 70.294 127.601 70.6568 127.978C71.0198 128.345 71.4443 128.634 71.9304 128.843C72.4264 129.053 72.9694 129.163 73.5593 129.175Z" fill="#121011"/>
<path d="M84.9174 128.577L82.8714 118.278L84.3426 117.986L86.1343 127.005L91.7104 125.897L91.9647 127.177L84.9174 128.577Z" fill="#121011"/>
<path d="M94.4086 125.824L95.3013 114.332L96.6974 113.826L104.76 122.073L103.279 122.609L95.9965 114.974L96.5606 114.769L95.8611 125.298L94.4086 125.824ZM95.418 122.666L95.3898 121.4L100.946 119.386L101.764 120.366L95.418 122.666Z" fill="#121011"/>
<path d="M109.538 118.415L104.92 110.464L101.807 112.272L101.152 111.143L108.662 106.781L109.317 107.91L106.204 109.718L110.822 117.669L109.538 118.415Z" fill="#121011"/>
<path d="M114.35 107.307L118.562 103.927L119.36 104.922L115.148 108.302L114.35 107.307ZM117.375 110.861L122.148 107.03L122.965 108.048L117.022 112.818L110.45 104.629L116.229 99.9908L117.046 101.009L112.437 104.708L117.375 110.861Z" fill="#121011"/>
<path d="M29.2067 30.8097C28.6209 31.3544 27.9904 31.7631 27.3154 32.0358C26.6409 32.2943 25.9571 32.418 25.2641 32.407C24.5716 32.3818 23.9015 32.2265 23.2538 31.9412C22.6062 31.6558 22.0168 31.2276 21.4856 30.6563C20.9545 30.0851 20.5701 29.4662 20.3325 28.7995C20.095 28.1328 19.9958 27.4535 20.0352 26.7615C20.0677 26.0622 20.2407 25.3892 20.5543 24.7426C20.8684 24.0818 21.3184 23.479 21.9043 22.9343C22.4975 22.3827 23.1384 21.9779 23.8271 21.7199C24.5162 21.4478 25.2204 21.346 25.9396 21.4146L25.8691 22.7706C25.2902 22.7354 24.7495 22.8148 24.2472 23.0088C23.738 23.1955 23.2747 23.4829 22.8573 23.8711C22.4252 24.2728 22.0906 24.7206 21.8533 25.2143C21.6233 25.7013 21.4954 26.2025 21.4696 26.7181C21.4437 27.2337 21.5242 27.7461 21.7109 28.2552C21.8981 28.7503 22.1891 29.2102 22.5841 29.6349C22.9791 30.0597 23.42 30.387 23.9069 30.617C24.3944 30.8328 24.8962 30.9466 25.4123 30.9583C25.9284 30.97 26.4376 30.8788 26.94 30.6848C27.4496 30.484 27.9205 30.1827 28.3526 29.7809C28.77 29.3928 29.0937 28.9552 29.3237 28.4683C29.5469 27.974 29.6585 27.4333 29.6586 26.846L31.0161 26.8741C31.0323 27.5964 30.8831 28.295 30.5685 28.9699C30.2612 29.638 29.8073 30.2513 29.2067 30.8097Z" fill="#121011"/>
<path d="M35.2209 13.3411L36.4982 12.5546L42.004 21.4952L40.7268 22.2818L35.2209 13.3411ZM35.5923 25.4437L34.3151 26.2303L28.8092 17.2896L30.0864 16.503L35.5923 25.4437ZM38.3877 18.226L33.0105 21.5374L32.3262 20.4262L37.7034 17.1148L38.3877 18.226Z" fill="#121011"/>
<path d="M50.6651 17.9591C49.91 18.2232 49.1622 18.3417 48.4217 18.3146C47.6907 18.2843 47.01 18.125 46.3796 17.837C45.7458 17.5395 45.1895 17.1302 44.7107 16.6091C44.2318 16.088 43.8653 15.464 43.6111 14.7371C43.3569 14.0103 43.2547 13.2939 43.3044 12.5879C43.3541 11.8819 43.5358 11.2198 43.8493 10.6017C44.1595 9.9741 44.591 9.42064 45.1437 8.9413C45.6965 8.46196 46.3551 8.0886 47.1197 7.82121C47.8749 7.55712 48.6133 7.44192 49.3348 7.47561C50.0625 7.49656 50.7433 7.65577 51.377 7.95325C52.0168 8.23798 52.5715 8.64257 53.0409 9.167C53.5198 9.68813 53.888 10.3168 54.1455 11.0531C54.403 11.7894 54.5068 12.5105 54.4571 13.2165C54.4168 13.9192 54.2368 14.586 53.9172 15.2169C53.6037 15.835 53.1705 16.3838 52.6178 16.8631C52.0712 17.3297 51.4203 17.6951 50.6651 17.9591ZM50.2244 16.699C50.7719 16.5075 51.2439 16.2365 51.6404 15.886C52.0464 15.5321 52.3598 15.1259 52.5808 14.6672C52.8079 14.1958 52.935 13.6958 52.962 13.1673C52.9985 12.6354 52.921 12.0958 52.7296 11.5483C52.5381 11.0008 52.2624 10.5304 51.9024 10.1372C51.5518 9.74072 51.1425 9.43363 50.6744 9.21595C50.2125 8.98553 49.7125 8.85846 49.1745 8.83472C48.6459 8.80769 48.1079 8.8899 47.5604 9.08137C47.0035 9.27613 46.5221 9.55044 46.1161 9.90428C45.7196 10.2548 45.4078 10.6658 45.1807 11.1372C44.9503 11.5992 44.8168 12.0961 44.7803 12.6279C44.7533 13.1565 44.8355 13.6945 45.027 14.242C45.2185 14.7895 45.4895 15.2615 45.84 15.658C46.2 16.0512 46.6157 16.3613 47.0871 16.5885C47.5552 16.8061 48.0535 16.9285 48.5821 16.9555C49.12 16.9793 49.6675 16.8937 50.2244 16.699Z" fill="#121011"/>
<path d="M63.6226 14.879C62.8303 14.9895 62.0794 14.9631 61.37 14.7996C60.6691 14.6248 60.0379 14.3343 59.4763 13.928C58.9233 13.5104 58.4632 12.9991 58.096 12.3941C57.7289 11.789 57.4914 11.1002 57.3836 10.3277C57.2757 9.55519 57.3156 8.8277 57.503 8.14523C57.6905 7.46277 57.9986 6.84928 58.4275 6.30478C58.855 5.75036 59.3825 5.2981 60.0101 4.94798C60.6463 4.58657 61.3605 4.35057 62.1528 4.23999C62.9551 4.12802 63.7123 4.16369 64.4244 4.347C65.1451 4.51903 65.7805 4.83928 66.3305 5.30774L65.4955 6.37845C65.0413 6.01777 64.5528 5.77295 64.0299 5.64399C63.5057 5.50512 62.9613 5.47508 62.3968 5.55388C61.8125 5.63543 61.2816 5.8105 60.8041 6.07908C60.3365 6.34628 59.9444 6.68372 59.6277 7.09141C59.3111 7.4991 59.0833 7.96506 58.9444 8.48929C58.8141 9.00223 58.789 9.54592 58.8692 10.1204C58.9493 10.6948 59.123 11.2158 59.3902 11.6833C59.6659 12.1396 60.0119 12.5204 60.4281 12.8258C60.8443 13.1312 61.3139 13.3484 61.8367 13.4774C62.3695 13.6049 62.928 13.628 63.5123 13.5464C64.0769 13.4676 64.5929 13.2946 65.0605 13.0274C65.5266 12.7503 65.9281 12.3712 66.2648 11.89L67.3611 12.6912C66.9603 13.2923 66.4376 13.7793 65.7929 14.152C65.1582 14.5233 64.4347 14.7656 63.6226 14.879Z" fill="#121011"/>
<path d="M75.0601 14.4616C74.2614 14.4154 73.5254 14.2375 72.8522 13.928C72.189 13.6192 71.6217 13.2107 71.1503 12.7025C70.6794 12.1844 70.3231 11.5928 70.0811 10.9277C69.8392 10.2626 69.7405 9.54571 69.785 8.777C69.8296 8.00829 70.0104 7.30757 70.3275 6.67486C70.6447 6.04214 71.0667 5.50065 71.5936 5.05037C72.1211 4.59012 72.7321 4.24488 73.4266 4.01467C74.1211 3.78445 74.8727 3.69277 75.6813 3.73963C76.48 3.7859 77.2059 3.96319 77.8592 4.2715C78.523 4.57039 79.0903 4.97889 79.5611 5.497C80.0425 6.00569 80.3992 6.59231 80.6311 7.25684C80.8731 7.92194 80.9715 8.64385 80.9264 9.42254C80.8812 10.2012 80.7001 10.9069 80.383 11.5397C80.0758 12.1729 79.6535 12.7194 79.116 13.1791C78.5891 13.6294 77.9784 13.9696 77.2839 14.1998C76.6 14.4207 75.8587 14.5079 75.0601 14.4616ZM75.1373 13.1289C75.7163 13.1624 76.2562 13.0935 76.7569 12.9222C77.2677 12.7515 77.7131 12.4968 78.0934 12.1582C78.4842 11.8103 78.7935 11.3975 79.0216 10.9199C79.2595 10.4428 79.3953 9.9148 79.4289 9.33577C79.4624 8.75674 79.3885 8.21657 79.2072 7.71524C79.0359 7.21449 78.776 6.77372 78.4274 6.39292C78.0894 6.00271 77.6766 5.69332 77.189 5.46473C76.7114 5.23672 76.1831 5.10594 75.6041 5.07239C75.0151 5.03826 74.4652 5.10657 73.9545 5.27731C73.4537 5.44864 73.0079 5.70828 72.6172 6.05626C72.227 6.39426 71.9129 6.80177 71.6749 7.2788C71.4469 7.75641 71.3161 8.28473 71.2825 8.86376C71.249 9.44279 71.3179 9.98268 71.4892 10.4834C71.6705 10.9848 71.9351 11.4308 72.2831 11.8216C72.6317 12.2024 73.0448 12.5068 73.5224 12.7348C74.01 12.9634 74.5483 13.0948 75.1373 13.1289Z" fill="#121011"/>
<path d="M83.6452 15.3084L86.1212 5.10448L87.5789 5.45819L85.4106 14.3939L90.9353 15.7344L90.6276 17.0026L83.6452 15.3084Z" fill="#121011"/>
<path d="M91.3281 17.1043L99.8269 9.31774L101.192 9.90132L101.452 21.4311L100.004 20.8121L99.8968 10.2611L100.449 10.4969L92.7488 17.7115L91.3281 17.1043ZM94.2218 15.4863L95.0658 14.542L100.5 16.8646L100.429 18.139L94.2218 15.4863Z" fill="#121011"/>
<path d="M104.703 23.5478L109.639 15.79L106.602 13.8574L107.303 12.7564L114.63 17.4187L113.93 18.5197L110.892 16.5871L105.956 24.3449L104.703 23.5478Z" fill="#121011"/>
<path d="M115.844 24.1505L119.865 27.7552L119.014 28.7045L114.993 25.0999L115.844 24.1505ZM112.831 27.7141L117.388 31.7994L116.517 32.7711L110.843 27.6845L117.852 19.8664L123.369 24.8128L122.498 25.7845L118.098 21.8394L112.831 27.7141Z" fill="#121011"/>
<path d="M7.04807 39.4575C6.98086 39.4572 6.91477 39.4403 6.85563 39.4084C6.08307 39.0022 5.45198 38.3711 5.0458 37.5986C4.99584 37.5019 4.98633 37.3894 5.01935 37.2857C5.05237 37.1821 5.12522 37.0958 5.22187 37.0458C5.31852 36.9958 5.43105 36.9863 5.53472 37.0193C5.63839 37.0524 5.72469 37.1252 5.77464 37.2219C6.10001 37.8503 6.61213 38.3624 7.24052 38.6877C7.32057 38.731 7.38396 38.7996 7.42068 38.8828C7.45739 38.966 7.46535 39.0591 7.44328 39.1474C7.42122 39.2356 7.3704 39.314 7.29883 39.3702C7.22727 39.4264 7.13904 39.4571 7.04807 39.4575Z" fill="#121011"/>
<path d="M13.338 40.1292C11.1433 37.9263 7.07734 38.5364 6.90536 38.565C6.82012 38.5786 6.74136 38.6188 6.68032 38.6798C6.61929 38.7409 6.5791 38.8196 6.56551 38.9049C6.53684 39.0768 5.92674 43.1428 8.12966 45.3375C9.52183 46.7338 11.6674 47 13.0924 47C13.584 47.0016 14.0752 46.9688 14.5623 46.9017C14.6476 46.8881 14.7263 46.8479 14.7874 46.7869C14.8484 46.7258 14.8886 46.6471 14.9022 46.5618C14.9308 46.3899 15.5409 42.3239 13.338 40.1292Z" fill="#121011"/>
<path d="M14.5991 46.1194V46.0989C14.5991 46.0703 14.5786 46.0457 14.5704 46.0171C13.5099 42.7332 11.1432 40.346 7.45806 38.917C7.40518 38.8829 7.34517 38.8615 7.28268 38.8544C7.22019 38.8473 7.15691 38.8547 7.09774 38.876C7.04355 38.8979 6.99469 38.9312 6.95443 38.9736C6.91417 39.016 6.88346 39.0665 6.86434 39.1217C6.83168 39.2088 6.83168 39.3048 6.86434 39.3919L6.88481 39.4411C8.32613 43.114 10.7338 45.5052 14.0095 46.5698C14.0711 46.6081 14.1417 46.6293 14.2142 46.6312C14.2573 46.6304 14.3 46.6235 14.3411 46.6108C14.4016 46.5902 14.4564 46.5558 14.5012 46.5103C14.546 46.4648 14.5795 46.4095 14.5991 46.3487V46.3242C14.6154 46.2624 14.6154 46.1975 14.5991 46.1358V46.1194Z" fill="#E8E3DC"/>
<path d="M129.952 39.4575C130.019 39.4572 130.085 39.4403 130.144 39.4084C130.917 39.0022 131.548 38.3711 131.954 37.5986C132.004 37.5019 132.014 37.3894 131.981 37.2857C131.948 37.1821 131.875 37.0958 131.778 37.0458C131.681 36.9958 131.569 36.9863 131.465 37.0193C131.362 37.0524 131.275 37.1252 131.225 37.2219C130.9 37.8503 130.388 38.3624 129.759 38.6877C129.679 38.731 129.616 38.7996 129.579 38.8828C129.543 38.966 129.535 39.0591 129.557 39.1474C129.579 39.2356 129.63 39.314 129.701 39.3702C129.773 39.4264 129.861 39.4571 129.952 39.4575Z" fill="#121011"/>
<path d="M123.662 40.1292C125.857 37.9263 129.923 38.5364 130.095 38.565C130.18 38.5786 130.259 38.6188 130.32 38.6798C130.381 38.7409 130.421 38.8196 130.434 38.9049C130.463 39.0768 131.073 43.1428 128.87 45.3375C127.478 46.7338 125.333 47 123.908 47C123.416 47.0016 122.925 46.9688 122.438 46.9017C122.352 46.8881 122.274 46.8479 122.213 46.7869C122.152 46.7258 122.111 46.6471 122.098 46.5618C122.069 46.3899 121.459 42.3239 123.662 40.1292Z" fill="#121011"/>
<path d="M122.401 46.1194V46.0989C122.401 46.0703 122.421 46.0457 122.43 46.0171C123.49 42.7332 125.857 40.346 129.542 38.917C129.595 38.8829 129.655 38.8615 129.717 38.8544C129.78 38.8473 129.843 38.8547 129.902 38.876C129.956 38.8979 130.005 38.9312 130.046 38.9736C130.086 39.016 130.117 39.0665 130.136 39.1217C130.168 39.2088 130.168 39.3048 130.136 39.3919L130.115 39.4411C128.674 43.114 126.266 45.5052 122.991 46.5698C122.929 46.6081 122.858 46.6293 122.786 46.6312C122.743 46.6304 122.7 46.6235 122.659 46.6108C122.598 46.5902 122.544 46.5558 122.499 46.5103C122.454 46.4648 122.42 46.4095 122.401 46.3487V46.3242C122.385 46.2624 122.385 46.1975 122.401 46.1358V46.1194Z" fill="#E8E3DC"/>
<path d="M128.952 92.5425C129.019 92.5428 129.085 92.5597 129.144 92.5916C129.917 92.9978 130.548 93.6289 130.954 94.4014C131.004 94.4981 131.014 94.6106 130.981 94.7143C130.948 94.8179 130.875 94.9042 130.778 94.9542C130.681 95.0042 130.569 95.0137 130.465 94.9807C130.362 94.9476 130.275 94.8748 130.225 94.7781C129.9 94.1497 129.388 93.6376 128.759 93.3123C128.679 93.269 128.616 93.2004 128.579 93.1172C128.543 93.034 128.535 92.9409 128.557 92.8526C128.579 92.7644 128.63 92.686 128.701 92.6298C128.773 92.5736 128.861 92.5429 128.952 92.5425Z" fill="#121011"/>
<path d="M122.662 91.8708C124.857 94.0737 128.923 93.4636 129.095 93.435C129.18 93.4214 129.259 93.3812 129.32 93.3202C129.381 93.2591 129.421 93.1804 129.434 93.0951C129.463 92.9232 130.073 88.8572 127.87 86.6625C126.478 85.2662 124.333 85 122.908 85C122.416 84.9984 121.925 85.0312 121.438 85.0983C121.352 85.1119 121.274 85.1521 121.213 85.2131C121.152 85.2742 121.111 85.3529 121.098 85.4382C121.069 85.6101 120.459 89.6761 122.662 91.8708Z" fill="#121011"/>
<path d="M121.401 85.8806V85.9011C121.401 85.9297 121.421 85.9543 121.43 85.9829C122.49 89.2668 124.857 91.654 128.542 93.083C128.595 93.1171 128.655 93.1385 128.717 93.1456C128.78 93.1527 128.843 93.1453 128.902 93.124C128.956 93.1021 129.005 93.0688 129.046 93.0264C129.086 92.984 129.117 92.9335 129.136 92.8783C129.168 92.7912 129.168 92.6952 129.136 92.6081L129.115 92.5589C127.674 88.886 125.266 86.4948 121.991 85.4302C121.929 85.3919 121.858 85.3707 121.786 85.3688C121.743 85.3696 121.7 85.3765 121.659 85.3892C121.598 85.4098 121.544 85.4442 121.499 85.4897C121.454 85.5352 121.42 85.5905 121.401 85.6513V85.6758C121.385 85.7376 121.385 85.8025 121.401 85.8642V85.8806Z" fill="#E8E3DC"/>
<path d="M8.04807 94.5425C7.98086 94.5428 7.91477 94.5597 7.85563 94.5916C7.08307 94.9978 6.45198 95.6289 6.0458 96.4014C5.99584 96.4981 5.98633 96.6106 6.01935 96.7143C6.05237 96.8179 6.12522 96.9042 6.22187 96.9542C6.31852 97.0042 6.43105 97.0137 6.53472 96.9807C6.63839 96.9476 6.72469 96.8748 6.77464 96.7781C7.10001 96.1497 7.61213 95.6376 8.24052 95.3123C8.32057 95.269 8.38396 95.2004 8.42068 95.1172C8.45739 95.034 8.46535 94.9409 8.44328 94.8526C8.42122 94.7644 8.3704 94.686 8.29883 94.6298C8.22727 94.5736 8.13904 94.5429 8.04807 94.5425Z" fill="#121011"/>
<path d="M14.338 93.8708C12.1433 96.0737 8.07734 95.4636 7.90536 95.435C7.82012 95.4214 7.74136 95.3812 7.68032 95.3202C7.61929 95.2591 7.5791 95.1804 7.56551 95.0951C7.53684 94.9232 6.92674 90.8572 9.12966 88.6625C10.5218 87.2662 12.6674 87 14.0924 87C14.584 86.9984 15.0752 87.0312 15.5623 87.0983C15.6476 87.1119 15.7263 87.1521 15.7874 87.2131C15.8484 87.2742 15.8886 87.3529 15.9022 87.4382C15.9308 87.6101 16.5409 91.6761 14.338 93.8708Z" fill="#121011"/>
<path d="M15.5991 87.8806V87.9011C15.5991 87.9297 15.5786 87.9543 15.5704 87.9829C14.5099 91.2668 12.1432 93.654 8.45806 95.083C8.40518 95.1171 8.34517 95.1385 8.28268 95.1456C8.22019 95.1527 8.15691 95.1453 8.09774 95.124C8.04355 95.1021 7.99469 95.0688 7.95443 95.0264C7.91417 94.984 7.88346 94.9335 7.86434 94.8783C7.83168 94.7912 7.83168 94.6952 7.86434 94.6081L7.88481 94.5589C9.32613 90.886 11.7338 88.4948 15.0095 87.4302C15.0711 87.3919 15.1417 87.3707 15.2142 87.3688C15.2573 87.3696 15.3 87.3765 15.3411 87.3892C15.4016 87.4098 15.4564 87.4442 15.5012 87.4897C15.546 87.5352 15.5795 87.5905 15.5991 87.6513V87.6758C15.6154 87.7376 15.6154 87.8025 15.5991 87.8642V87.8806Z" fill="#E8E3DC"/>
</svg>
