<svg width="37" height="29" viewBox="0 0 37 29" fill="none" xmlns="http://www.w3.org/2000/svg">
<path d="M32.5502 4.90203L19.7796 15.5328C19.0382 16.15 17.9618 16.15 17.2204 15.5328L4.44982 4.90203M1.5249 1.62411C1.8574 1.24802 2.3071 1.03498 2.7769 1.03048C2.7853 1.0304 2.79211 1.0236 2.79211 1.0152V1.0152C2.79211 1.00681 2.79892 1 2.80732 1H34.2079C34.6832 1 35.139 1.21356 35.4751 1.5937C35.8112 1.97384 36 2.48943 36 3.02703V25.973C36 26.5106 35.8112 27.0262 35.4751 27.4063C35.139 27.7864 34.6832 28 34.2079 28H2.79211C2.31682 28 1.86099 27.7864 1.5249 27.4063C1.18881 27.0262 1 26.5106 1 25.973V3.05743C1 2.51983 1.18881 2.00425 1.5249 1.62411Z" stroke="#121011" stroke-width="1.3" stroke-linecap="round" stroke-linejoin="round"/>
</svg>
