<svg width="31" height="28" viewBox="0 0 31 28" color="black" fill="none" xmlns="http://www.w3.org/2000/svg">
<path d="M29.171 0.00205999C28.8276 0.0170217 28.4934 0.111937 28.192 0.231815C27.8936 0.35089 26.176 1.07898 23.6396 2.15601C21.1031 3.23304 17.806 4.63555 14.5376 6.02628C8.00074 8.80774 1.57718 11.5445 1.57718 11.5445L1.624 11.5267C1.624 11.5267 1.2363 11.6554 0.843235 11.9274C0.646701 12.0634 0.435262 12.239 0.262138 12.495C0.0890143 12.7509 -0.0375504 13.1137 0.0101458 13.4974C0.177676 14.8451 1.58406 15.2274 1.58406 15.2274L1.58957 15.2301L7.86597 17.3636C8.02599 17.8938 9.76962 23.6736 10.1532 24.8976C10.365 25.5744 10.5633 25.9647 10.7701 26.231C10.8736 26.3643 10.982 26.4674 11.1019 26.5428C11.1496 26.5728 11.1997 26.5953 11.2493 26.6153C11.2503 26.6158 11.251 26.6149 11.252 26.6153C11.2581 26.618 11.2639 26.6182 11.2699 26.6208L11.2534 26.6167C11.2649 26.6213 11.2763 26.6291 11.2878 26.6331C11.3102 26.6409 11.3239 26.6406 11.3525 26.6468C12.0714 26.896 12.6662 26.4334 12.6662 26.4334L12.691 26.4143L16.5466 22.8627L22.8037 27.708L22.8822 27.7436C23.9774 28.2265 24.9679 27.9571 25.5164 27.5138C26.065 27.0705 26.2807 26.4991 26.2807 26.4991L26.3041 26.4389L30.9019 2.63877C31.0196 2.10631 31.0363 1.64605 30.9253 1.23015C30.8144 0.814255 30.5448 0.452717 30.2065 0.252329C29.8683 0.0519396 29.5144 -0.0129017 29.171 0.00205999ZM29.2082 1.42572C29.3476 1.4193 29.451 1.43514 29.4836 1.45444C29.5162 1.47374 29.5308 1.4712 29.5621 1.58846C29.5934 1.70573 29.6103 1.95271 29.5249 2.33927L29.5221 2.34747L24.9505 26.0095C24.9397 26.0333 24.8444 26.2522 24.6269 26.428C24.405 26.6073 24.1582 26.7472 23.5033 26.4745L16.6609 21.1751L16.4681 21.0246L16.464 21.0287L14.4178 19.5039L25.9171 6.06731C26.0055 5.96433 26.0619 5.83814 26.0796 5.70398C26.0973 5.56983 26.0755 5.43346 26.0168 5.31137C25.9581 5.18927 25.865 5.08668 25.7488 5.016C25.6327 4.94531 25.4984 4.90956 25.3622 4.91307C25.2291 4.9165 25.0998 4.95728 24.989 5.03068L8.3493 16.048L2.06326 13.9104C2.06326 13.9104 1.43906 13.5654 1.40918 13.3251C1.40753 13.3118 1.40016 13.3238 1.43259 13.2759C1.46503 13.2279 1.54656 13.1469 1.64878 13.0762C1.85323 12.9347 2.08667 12.8492 2.08667 12.8492L2.11008 12.841L2.13349 12.8314C2.13349 12.8314 8.55738 10.0945 15.0939 7.31318C18.3621 5.92253 21.6587 4.52104 24.1945 3.44428C26.7297 2.3678 28.5615 1.59295 28.7166 1.53102C28.8932 1.46079 29.0687 1.43213 29.2082 1.42572ZM21.5823 8.96933L12.8617 19.1592L12.8576 19.1633C12.844 19.1796 12.8311 19.1965 12.8191 19.2139C12.8052 19.2329 12.7924 19.2525 12.7805 19.2727C12.7315 19.3553 12.7001 19.447 12.6882 19.5422C12.6882 19.544 12.6882 19.5458 12.6882 19.5476L11.5522 24.6214C11.5333 24.5666 11.5201 24.5465 11.4999 24.4819V24.4805C11.1391 23.3291 9.49399 17.8781 9.26638 17.1243L21.5823 8.96933ZM13.8463 20.8291L15.4133 21.997L13.111 24.1167L13.8463 20.8291Z" fill="#121011"/>
</svg>
